<svg width="35" height="35" viewBox="0 0 35 35" fill="none" xmlns="http://www.w3.org/2000/svg">
<rect x="0.250244" y="0.450195" width="34" height="34" rx="5" fill="black"/>
<path d="M23.455 9.36523C23.7697 9.36523 24.0288 9.43869 24.2324 9.58561C24.436 9.73253 24.5378 9.90699 24.5378 10.109C24.5378 10.2743 24.4545 10.4579 24.2879 10.6599C24.3249 10.6232 23.8715 11.1282 22.9276 12.175C20.9287 14.3788 19.4666 16.0683 18.5412 17.2436C19.7812 19.1168 21.1878 20.9625 22.761 22.7806C22.8906 22.9091 22.9553 23.056 22.9553 23.2213C22.9553 23.5886 22.6685 23.9467 22.0947 24.2957C21.5395 24.6262 20.9935 24.7915 20.4568 24.7915C20.0866 24.7915 19.809 24.6905 19.6239 24.4885C18.3469 23.0377 17.2364 21.642 16.2925 20.3014C15.5892 21.293 14.5527 22.7989 13.1831 24.819C13.0351 25.0211 12.7482 25.1955 12.3225 25.3424C11.8968 25.471 11.4712 25.5353 11.0455 25.5353C10.7308 25.5353 10.4717 25.4985 10.2681 25.4251C10.0646 25.3333 9.96277 25.2047 9.96277 25.0394C9.96277 24.9476 10.0183 24.819 10.1293 24.6538C11.9616 21.9358 13.5255 19.7412 14.8211 18.0701C13.4885 15.9581 12.3595 13.7911 11.4341 11.569C11.3971 11.4221 11.3786 11.3211 11.3786 11.266C11.3786 10.8803 11.647 10.5314 12.1837 10.2192C12.7204 9.88863 13.2572 9.72334 13.7939 9.72334C14.3862 9.72334 14.7563 9.91617 14.9044 10.3018C15.5522 11.8445 16.3202 13.4238 17.2086 15.0399C18.7263 13.2402 20.1606 11.6516 21.5117 10.2743C21.7523 10.0172 22.0484 9.80599 22.4001 9.6407C22.7703 9.45706 23.1219 9.36523 23.455 9.36523Z" fill="#E60000"/>
</svg>
