<svg width="95" height="25" viewBox="0 0 95 25" fill="none" xmlns="http://www.w3.org/2000/svg">
<path d="M17.0547 23.8546V1.39702H24.7862C27.5556 1.39702 29.6598 1.92658 31.0987 2.98571C32.5474 4.04483 33.2718 5.58211 33.2718 7.59753C33.2718 8.75949 33.0155 9.75177 32.5031 10.5744C31.9906 11.397 31.2366 12.0037 30.2412 12.3944C31.3647 12.7029 32.2271 13.2788 32.8283 14.122C33.4295 14.9651 33.7301 15.9934 33.7301 17.2068C33.7301 19.4073 33.0599 21.0628 31.7195 22.1734C30.3891 23.2736 28.413 23.834 25.7915 23.8546H17.0547ZM22.2435 14.307V19.6901H25.6437C26.5799 19.6901 27.2994 19.469 27.802 19.0268C28.3046 18.5744 28.5559 17.942 28.5559 17.1297C28.5559 15.2582 27.664 14.3173 25.8802 14.307H22.2435ZM22.2435 10.7595H24.9489C26.0822 10.7492 26.8904 10.5333 27.3733 10.1117C27.8562 9.69008 28.0977 9.06797 28.0977 8.24535C28.0977 7.29933 27.8365 6.62067 27.3142 6.20936C26.7918 5.78776 25.9492 5.57697 24.7862 5.57697H22.2435V10.7595Z" fill="#141414"/>
<path d="M35.7406 15.3559C35.7406 13.6901 36.051 12.2094 36.6719 10.9137C37.2928 9.60782 38.1847 8.60525 39.3477 7.90602C40.5106 7.20679 41.8756 6.85717 43.4426 6.85717C45.8375 6.85717 47.7248 7.63352 49.1045 9.18622C50.4843 10.7286 51.1742 12.8315 51.1742 15.4947V15.6798C51.1742 18.2813 50.4794 20.3482 49.0897 21.8803C47.71 23.4022 45.8375 24.1631 43.4722 24.1631C41.1955 24.1631 39.3674 23.4536 37.9876 22.0345C36.6078 20.6052 35.8638 18.6721 35.7553 16.2351L35.7406 15.3559ZM40.7225 15.6798C40.7225 17.2222 40.9541 18.3533 41.4173 19.0731C41.8805 19.7929 42.5655 20.1528 43.4722 20.1528C45.2461 20.1528 46.1528 18.7286 46.1923 15.8803V15.3559C46.1923 12.3636 45.2757 10.8675 43.4426 10.8675C41.777 10.8675 40.8752 12.1579 40.7373 14.7389L40.7225 15.6798Z" fill="#141414"/>
<path d="M62.3798 23.8546C62.2024 23.5153 62.0447 23.0166 61.9067 22.3585C60.9902 23.5615 59.709 24.1631 58.0631 24.1631C56.5552 24.1631 55.274 23.6901 54.2195 22.7441C53.165 21.7878 52.6377 20.5898 52.6377 19.1502C52.6377 17.3405 53.2783 15.9729 54.5595 15.0474C55.8407 14.122 57.7034 13.6592 60.1475 13.6592H61.685V12.7801C61.685 11.2479 61.0493 10.4819 59.778 10.4819C58.5953 10.4819 58.004 11.0885 58.004 12.3019H53.0221C53.0221 10.6875 53.6775 9.37645 54.9882 8.36874C56.3089 7.36103 57.9892 6.85717 60.0293 6.85717C62.0694 6.85717 63.6807 7.37645 64.8634 8.41501C66.046 9.45357 66.6521 10.8777 66.6817 12.6875V20.0757C66.7014 21.6078 66.9281 22.7801 67.3617 23.5924V23.8546H62.3798ZM59.2606 20.4613C59.8814 20.4613 60.3939 20.3225 60.798 20.0448C61.2119 19.7672 61.5076 19.4536 61.685 19.104V16.4356H60.2362C58.5017 16.4356 57.6344 17.2479 57.6344 18.8726C57.6344 19.3456 57.7872 19.7312 58.0927 20.0294C58.3982 20.3173 58.7875 20.4613 59.2606 20.4613Z" fill="#141414"/>
<path d="M79.1291 11.87L77.4882 11.7466C75.9212 11.7466 74.9159 12.2608 74.4724 13.289V23.8546H69.4905V7.16566H74.162L74.3246 9.30962C75.1623 7.67465 76.3302 6.85717 77.8282 6.85717C78.3604 6.85717 78.8236 6.91887 79.2178 7.04226L79.1291 11.87Z" fill="#141414"/>
<path d="M80.0013 15.3867C80.0013 12.7441 80.5483 10.6618 81.6422 9.13995C82.7362 7.6181 84.2638 6.85717 86.225 6.85717C87.6541 6.85717 88.8564 7.44329 89.8321 8.61553V0.163086H94.8288V23.8546H90.3495L90.0982 22.0654C89.0732 23.4639 87.7723 24.1631 86.1955 24.1631C84.2934 24.1631 82.7855 23.4022 81.6718 21.8803C80.5582 20.3585 80.0013 18.1939 80.0013 15.3867ZM84.9832 15.7106C84.9832 18.6721 85.8111 20.1528 87.4668 20.1528C88.5706 20.1528 89.3591 19.6695 89.8321 18.7029V12.3482C89.3788 11.361 88.6002 10.8675 87.4964 10.8675C85.9589 10.8675 85.1261 12.1631 84.998 14.7543L84.9832 15.7106Z" fill="#141414"/>
<path d="M14.3211 6.8125C14.6358 6.8125 14.8949 6.88596 15.0985 7.03288C15.3021 7.17979 15.4038 7.35426 15.4038 7.55627C15.4038 7.72155 15.3206 7.90519 15.154 8.10721C15.191 8.07048 14.7376 8.5755 13.7937 9.62228C11.7948 11.826 10.3327 13.5156 9.40728 14.6909C10.6473 16.5641 12.0539 18.4097 13.6271 20.2278C13.7566 20.3564 13.8214 20.5033 13.8214 20.6686C13.8214 21.0359 13.5345 21.394 12.9608 21.7429C12.4056 22.0735 11.8596 22.2388 11.3229 22.2388C10.9527 22.2388 10.6751 22.1378 10.49 21.9357C9.21295 20.4849 8.10247 19.0892 7.15857 17.7486C6.45527 18.7403 5.41882 20.2462 4.04924 22.2663C3.90117 22.4683 3.6143 22.6428 3.18862 22.7897C2.76294 22.9183 2.33725 22.9825 1.91157 22.9825C1.59694 22.9825 1.33783 22.9458 1.13424 22.8723C0.930651 22.7805 0.828857 22.652 0.828857 22.4867C0.828857 22.3949 0.884381 22.2663 0.995429 22.101C2.82771 19.3831 4.39163 17.1885 5.68719 15.5173C4.35462 13.4054 3.22563 11.2384 2.30024 9.01625C2.26322 8.86934 2.24471 8.76833 2.24471 8.71324C2.24471 8.32758 2.51308 7.97865 3.04981 7.66645C3.58654 7.33589 4.12327 7.17061 4.66 7.17061C5.25225 7.17061 5.62241 7.36344 5.77047 7.7491C6.41825 9.29172 7.18633 10.8711 8.07471 12.4872C9.59236 10.6874 11.0267 9.09889 12.3778 7.72155C12.6184 7.46444 12.9145 7.25325 13.2662 7.08797C13.6363 6.90432 13.988 6.8125 14.3211 6.8125Z" fill="#E60000"/>
</svg>
