<svg width="35" height="32" viewBox="0 0 35 32" fill="none" xmlns="http://www.w3.org/2000/svg">
<path d="M31.2189 18.6637L34.0134 6.07612C34.2151 5.16727 33.5404 4.30181 32.63 4.30181H9.41131L8.86948 1.59004C8.73446 0.91412 8.1535 0.428711 7.47955 0.428711H1.41872C0.635172 0.428711 0 1.07897 0 1.88112V2.8494C0 3.65156 0.635172 4.30181 1.41872 4.30181H5.54973L9.70233 25.0856C8.70887 25.6705 8.03941 26.7671 8.03941 28.0246C8.03941 29.8962 9.5215 31.4135 11.3498 31.4135C13.178 31.4135 14.6601 29.8962 14.6601 28.0246C14.6601 27.076 14.279 26.219 13.6656 25.6039H26.0585C25.4451 26.219 25.064 27.076 25.064 28.0246C25.064 29.8962 26.5461 31.4135 28.3744 31.4135C30.2026 31.4135 31.6847 29.8962 31.6847 28.0246C31.6847 26.6828 30.9229 25.5233 29.818 24.9742L30.1441 23.5051C30.3459 22.5962 29.6711 21.7308 28.7607 21.7308H12.8936L12.5067 19.7942H29.8355C30.4979 19.7942 31.0721 19.325 31.2189 18.6637Z" fill="#141414"/>
</svg>
